<svg width="7936.507936507936" height="2500" version="1.1" xmlns="http://www.w3.org/2000/svg" ><desc>Binarized and Traced by BDFM https://bitmap.designfamilymarket.com/</desc><path fill="rgb(0,0,0)" d="M 4127 714 L 4325 714 L 4325 794 L 4286 794 L 4286 833 L 4325 833 L 4325 913 L 4286 913 L 4286 952 L 4325 952 L 4325 1032 L 4286 1032 L 4286 1071 L 4365 1071 L 4365 1032 L 4405 1032 L 4405 992 L 4722 992 L 4722 1032 L 4762 1032 L 4762 1111 L 4802 1111 L 4802 1230 L 4841 1230 L 4841 1270 L 4802 1270 L 4802 1349 L 4841 1349 L 4841 1389 L 4802 1389 L 4802 1468 L 4841 1468 L 4841 1508 L 4802 1508 L 4802 1587 L 4841 1587 L 4841 1627 L 4802 1627 L 4802 1706 L 4841 1706 L 4841 1746 L 4603 1746 L 4603 1190 L 4563 1190 L 4563 1151 L 4365 1151 L 4365 1230 L 4325 1230 L 4325 1349 L 4286 1349 L 4286 1389 L 4325 1389 L 4325 1468 L 4286 1468 L 4286 1508 L 4325 1508 L 4325 1667 L 4286 1667 L 4286 1706 L 4325 1706 L 4325 1746 L 4127 1746 L 4127 1667 L 4087 1667 L 4087 1587 L 4127 1587 L 4127 1548 L 4087 1548 L 4087 1468 L 4127 1468 L 4127 1429 L 4087 1429 L 4087 1349 L 4127 1349 L 4127 1310 L 4087 1310 L 4087 1230 L 4127 1230 L 4127 1190 L 4087 1190 L 4087 1111 L 4127 1111 L 4127 1071 L 4087 1071 L 4087 992 L 4127 992 L 4127 952 L 4087 952 L 4087 873 L 4127 873 L 4127 833 L 4087 833 L 4087 754 L 4127 754 Z M 1111 992 L 1389 992 L 1389 1032 L 1468 1032 L 1468 1071 L 1508 1071 L 1508 992 L 1706 992 L 1706 1111 L 1746 1111 L 1746 1151 L 1706 1151 L 1706 1230 L 1746 1230 L 1746 1270 L 1706 1270 L 1706 1349 L 1746 1349 L 1746 1389 L 1706 1389 L 1706 1468 L 1746 1468 L 1746 1508 L 1706 1508 L 1706 1587 L 1746 1587 L 1746 1627 L 1706 1627 L 1706 1706 L 1746 1706 L 1746 1746 L 1508 1746 L 1508 1667 L 1468 1667 L 1468 1706 L 1429 1706 L 1429 1746 L 1270 1746 L 1270 1786 L 1190 1786 L 1190 1746 L 1111 1746 L 1111 1706 L 1071 1706 L 1071 1667 L 1032 1667 L 1032 1627 L 992 1627 L 992 1468 L 952 1468 L 952 1270 L 992 1270 L 992 1111 L 1032 1111 L 1032 1071 L 1071 1071 L 1071 1032 L 1111 1032 Z M 1230 1151 L 1230 1230 L 1190 1230 L 1190 1508 L 1230 1508 L 1230 1548 L 1270 1548 L 1270 1587 L 1429 1587 L 1429 1548 L 1468 1548 L 1468 1508 L 1508 1508 L 1508 1270 L 1468 1270 L 1468 1190 L 1429 1190 L 1429 1151 Z M 1984 992 L 2302 992 L 2302 1032 L 2341 1032 L 2341 1071 L 2381 1071 L 2381 1032 L 2421 1032 L 2421 992 L 2619 992 L 2619 1071 L 2579 1071 L 2579 1111 L 2619 1111 L 2619 1190 L 2579 1190 L 2579 1230 L 2619 1230 L 2619 1310 L 2579 1310 L 2579 1349 L 2619 1349 L 2619 1429 L 2579 1429 L 2579 1468 L 2619 1468 L 2619 1548 L 2579 1548 L 2579 1587 L 2619 1587 L 2619 1746 L 2381 1746 L 2381 1706 L 2421 1706 L 2421 1667 L 2341 1667 L 2341 1706 L 2302 1706 L 2302 1746 L 2183 1746 L 2183 1786 L 2103 1786 L 2103 1746 L 1984 1746 L 1984 1706 L 1944 1706 L 1944 1667 L 1905 1667 L 1905 1587 L 1865 1587 L 1865 1468 L 1825 1468 L 1825 1429 L 1865 1429 L 1865 1389 L 1825 1389 L 1825 1310 L 1865 1310 L 1865 1151 L 1905 1151 L 1905 1071 L 1944 1071 L 1944 1032 L 1984 1032 Z M 2143 1151 L 2143 1190 L 2103 1190 L 2103 1230 L 2063 1230 L 2063 1508 L 2103 1508 L 2103 1548 L 2143 1548 L 2143 1587 L 2302 1587 L 2302 1548 L 2341 1548 L 2341 1508 L 2381 1508 L 2381 1230 L 2341 1230 L 2341 1190 L 2302 1190 L 2302 1151 Z M 2778 992 L 2976 992 L 2976 1032 L 3016 1032 L 3016 992 L 3214 992 L 3214 1151 L 3056 1151 L 3056 1190 L 3016 1190 L 3016 1230 L 2976 1230 L 2976 1349 L 2937 1349 L 2937 1389 L 2976 1389 L 2976 1468 L 2937 1468 L 2937 1508 L 2976 1508 L 2976 1627 L 2937 1627 L 2937 1667 L 2976 1667 L 2976 1746 L 2778 1746 L 2778 1706 L 2738 1706 L 2738 1627 L 2778 1627 L 2778 1587 L 2738 1587 L 2738 1508 L 2778 1508 L 2778 1468 L 2738 1468 L 2738 1389 L 2778 1389 L 2778 1349 L 2738 1349 L 2738 1270 L 2778 1270 L 2778 1230 L 2738 1230 L 2738 1151 L 2778 1151 L 2778 1111 L 2738 1111 L 2738 1032 L 2778 1032 Z M 3452 992 L 3810 992 L 3810 1032 L 3889 1032 L 3889 1111 L 3929 1111 L 3929 1151 L 3968 1151 L 3968 1270 L 3770 1270 L 3770 1190 L 3730 1190 L 3730 1151 L 3651 1151 L 3651 1111 L 3571 1111 L 3571 1151 L 3532 1151 L 3532 1190 L 3492 1190 L 3492 1270 L 3452 1270 L 3452 1389 L 3492 1389 L 3492 1468 L 3452 1468 L 3452 1508 L 3492 1508 L 3492 1548 L 3532 1548 L 3532 1587 L 3611 1587 L 3611 1627 L 3651 1627 L 3651 1587 L 3730 1587 L 3730 1548 L 3770 1548 L 3770 1468 L 3968 1468 L 3968 1587 L 3929 1587 L 3929 1627 L 3889 1627 L 3889 1706 L 3810 1706 L 3810 1746 L 3690 1746 L 3690 1786 L 3651 1786 L 3651 1746 L 3611 1746 L 3611 1786 L 3532 1786 L 3532 1746 L 3413 1746 L 3413 1706 L 3373 1706 L 3373 1667 L 3333 1667 L 3333 1627 L 3294 1627 L 3294 1548 L 3254 1548 L 3254 1190 L 3294 1190 L 3294 1111 L 3333 1111 L 3333 1071 L 3373 1071 L 3373 1032 L 3452 1032 Z M 5278 992 L 5516 992 L 5516 1071 L 5556 1071 L 5556 1190 L 5595 1190 L 5595 1389 L 5635 1389 L 5635 1508 L 5714 1508 L 5714 1349 L 5754 1349 L 5754 1190 L 5794 1190 L 5794 1071 L 5833 1071 L 5833 992 L 6032 992 L 6032 1071 L 5992 1071 L 5992 1230 L 5952 1230 L 5952 1349 L 5913 1349 L 5913 1429 L 5873 1429 L 5873 1587 L 5833 1587 L 5833 1706 L 5794 1706 L 5794 1746 L 5556 1746 L 5556 1706 L 5516 1706 L 5516 1587 L 5476 1587 L 5476 1468 L 5437 1468 L 5437 1389 L 5397 1389 L 5397 1230 L 5357 1230 L 5357 1111 L 5317 1111 L 5317 1032 L 5278 1032 Z M 6270 992 L 6627 992 L 6627 1032 L 6706 1032 L 6706 1071 L 6746 1071 L 6746 1151 L 6786 1151 L 6786 1230 L 6825 1230 L 6825 1429 L 6270 1429 L 6270 1468 L 6310 1468 L 6310 1548 L 6349 1548 L 6349 1587 L 6429 1587 L 6429 1627 L 6508 1627 L 6508 1587 L 6587 1587 L 6587 1548 L 6627 1548 L 6627 1508 L 6706 1508 L 6706 1548 L 6746 1548 L 6746 1508 L 6786 1508 L 6786 1627 L 6746 1627 L 6746 1667 L 6706 1667 L 6706 1706 L 6667 1706 L 6667 1746 L 6468 1746 L 6468 1786 L 6389 1786 L 6389 1746 L 6270 1746 L 6270 1706 L 6190 1706 L 6190 1627 L 6151 1627 L 6151 1587 L 6111 1587 L 6111 1429 L 6071 1429 L 6071 1310 L 6111 1310 L 6111 1151 L 6151 1151 L 6151 1111 L 6190 1111 L 6190 1071 L 6230 1071 L 6230 1032 L 6270 1032 Z M 6429 1111 L 6429 1151 L 6349 1151 L 6349 1190 L 6310 1190 L 6310 1270 L 6389 1270 L 6389 1310 L 6429 1310 L 6429 1270 L 6508 1270 L 6508 1310 L 6548 1310 L 6548 1270 L 6587 1270 L 6587 1190 L 6548 1190 L 6548 1151 L 6508 1151 L 6508 1111 Z M 5040 1032 L 5198 1032 L 5198 1230 L 5119 1230 L 5119 1270 L 5079 1270 L 5079 1230 L 5000 1230 L 5000 1071 L 5040 1071 Z M 5000 1548 L 5198 1548 L 5198 1667 L 5238 1667 L 5238 1706 L 5198 1706 L 5198 1746 L 5119 1746 L 5119 1786 L 5079 1786 L 5079 1746 L 5000 1746 Z" /></svg>